<mxfile host="Electron" modified="2024-04-24T15:08:51.171Z" agent="Mozilla/5.0 (Windows NT 10.0; Win64; x64) AppleWebKit/537.36 (KHTML, like Gecko) draw.io/24.1.0 Chrome/120.0.6099.109 Electron/28.1.0 Safari/537.36" etag="OhUOJqfOIv68_XTiOOr2" version="24.1.0" type="device">
  <diagram name="Página-1" id="HEz6LtYw46ml78lB_GAR">
    <mxGraphModel dx="1434" dy="836" grid="1" gridSize="10" guides="1" tooltips="1" connect="1" arrows="1" fold="1" page="1" pageScale="1" pageWidth="827" pageHeight="1169" math="0" shadow="0">
      <root>
        <mxCell id="0" />
        <mxCell id="1" parent="0" />
        <mxCell id="NdJ6AmRYJF5nQ-c4jrE2-1" value="" style="whiteSpace=wrap;html=1;aspect=fixed;" parent="1" vertex="1">
          <mxGeometry x="170" y="180" width="450" height="450" as="geometry" />
        </mxCell>
        <mxCell id="NdJ6AmRYJF5nQ-c4jrE2-2" value="Usuario" style="shape=umlActor;verticalLabelPosition=bottom;verticalAlign=top;html=1;outlineConnect=0;" parent="1" vertex="1">
          <mxGeometry x="60" y="300" width="30" height="60" as="geometry" />
        </mxCell>
        <mxCell id="NdJ6AmRYJF5nQ-c4jrE2-3" value="Insierir os dados do emprestimo e realiza a solicitação" style="ellipse;whiteSpace=wrap;html=1;" parent="1" vertex="1">
          <mxGeometry x="180" y="200" width="150" height="100" as="geometry" />
        </mxCell>
        <mxCell id="NdJ6AmRYJF5nQ-c4jrE2-4" value="" style="endArrow=none;html=1;rounded=0;exitX=1;exitY=0.3333333333333333;exitDx=0;exitDy=0;exitPerimeter=0;entryX=0;entryY=0.5;entryDx=0;entryDy=0;" parent="1" source="NdJ6AmRYJF5nQ-c4jrE2-2" target="NdJ6AmRYJF5nQ-c4jrE2-3" edge="1">
          <mxGeometry width="50" height="50" relative="1" as="geometry">
            <mxPoint x="390" y="380" as="sourcePoint" />
            <mxPoint x="440" y="330" as="targetPoint" />
          </mxGeometry>
        </mxCell>
        <mxCell id="NdJ6AmRYJF5nQ-c4jrE2-5" value="" style="endArrow=block;dashed=1;html=1;dashPattern=1 3;strokeWidth=2;rounded=0;endFill=1;exitX=1;exitY=0.5;exitDx=0;exitDy=0;entryX=0;entryY=0;entryDx=0;entryDy=0;" parent="1" source="NdJ6AmRYJF5nQ-c4jrE2-3" target="NdJ6AmRYJF5nQ-c4jrE2-7" edge="1">
          <mxGeometry width="50" height="50" relative="1" as="geometry">
            <mxPoint x="390" y="380" as="sourcePoint" />
            <mxPoint x="420" y="310" as="targetPoint" />
          </mxGeometry>
        </mxCell>
        <mxCell id="NdJ6AmRYJF5nQ-c4jrE2-6" value="&amp;lt;&amp;lt;include&amp;gt;&amp;gt;" style="text;html=1;align=center;verticalAlign=middle;whiteSpace=wrap;rounded=0;" parent="1" vertex="1">
          <mxGeometry x="354" y="230" width="60" height="30" as="geometry" />
        </mxCell>
        <mxCell id="NdJ6AmRYJF5nQ-c4jrE2-7" value="Verificar dados" style="ellipse;whiteSpace=wrap;html=1;" parent="1" vertex="1">
          <mxGeometry x="390" y="280" width="120" height="80" as="geometry" />
        </mxCell>
        <mxCell id="NdJ6AmRYJF5nQ-c4jrE2-8" value="Notificar dados invalidos" style="ellipse;whiteSpace=wrap;html=1;" parent="1" vertex="1">
          <mxGeometry x="230" y="380" width="120" height="80" as="geometry" />
        </mxCell>
        <mxCell id="NdJ6AmRYJF5nQ-c4jrE2-9" value="Criar Emprestimo" style="ellipse;whiteSpace=wrap;html=1;" parent="1" vertex="1">
          <mxGeometry x="490" y="430" width="120" height="80" as="geometry" />
        </mxCell>
        <mxCell id="NdJ6AmRYJF5nQ-c4jrE2-10" value="" style="endArrow=block;dashed=1;html=1;dashPattern=1 3;strokeWidth=2;rounded=0;endFill=1;entryX=1;entryY=0;entryDx=0;entryDy=0;exitX=0;exitY=1;exitDx=0;exitDy=0;" parent="1" source="NdJ6AmRYJF5nQ-c4jrE2-7" target="NdJ6AmRYJF5nQ-c4jrE2-8" edge="1">
          <mxGeometry width="50" height="50" relative="1" as="geometry">
            <mxPoint x="331" y="390" as="sourcePoint" />
            <mxPoint x="409" y="422" as="targetPoint" />
          </mxGeometry>
        </mxCell>
        <mxCell id="NdJ6AmRYJF5nQ-c4jrE2-11" value="" style="endArrow=block;dashed=1;html=1;dashPattern=1 3;strokeWidth=2;rounded=0;endFill=1;exitX=1;exitY=1;exitDx=0;exitDy=0;entryX=0.5;entryY=0;entryDx=0;entryDy=0;" parent="1" source="NdJ6AmRYJF5nQ-c4jrE2-7" target="NdJ6AmRYJF5nQ-c4jrE2-9" edge="1">
          <mxGeometry width="50" height="50" relative="1" as="geometry">
            <mxPoint x="414" y="448" as="sourcePoint" />
            <mxPoint x="492" y="480" as="targetPoint" />
          </mxGeometry>
        </mxCell>
        <mxCell id="NdJ6AmRYJF5nQ-c4jrE2-13" value="&amp;lt;&amp;lt;extend&amp;gt;&amp;gt;" style="text;html=1;align=center;verticalAlign=middle;whiteSpace=wrap;rounded=0;" parent="1" vertex="1">
          <mxGeometry x="300" y="350" width="60" height="30" as="geometry" />
        </mxCell>
        <mxCell id="NdJ6AmRYJF5nQ-c4jrE2-14" value="&amp;lt;&amp;lt;extend&amp;gt;&amp;gt;" style="text;html=1;align=center;verticalAlign=middle;whiteSpace=wrap;rounded=0;" parent="1" vertex="1">
          <mxGeometry x="530" y="370" width="60" height="30" as="geometry" />
        </mxCell>
        <mxCell id="NdJ6AmRYJF5nQ-c4jrE2-15" value="Notificar sucesso na criação do emprestimo" style="ellipse;whiteSpace=wrap;html=1;" parent="1" vertex="1">
          <mxGeometry x="220" y="490" width="130" height="95" as="geometry" />
        </mxCell>
        <mxCell id="NdJ6AmRYJF5nQ-c4jrE2-16" value="" style="endArrow=block;dashed=1;html=1;dashPattern=1 3;strokeWidth=2;rounded=0;endFill=1;exitX=0;exitY=0.5;exitDx=0;exitDy=0;entryX=1;entryY=0.5;entryDx=0;entryDy=0;" parent="1" source="NdJ6AmRYJF5nQ-c4jrE2-9" target="NdJ6AmRYJF5nQ-c4jrE2-15" edge="1">
          <mxGeometry width="50" height="50" relative="1" as="geometry">
            <mxPoint x="390" y="520" as="sourcePoint" />
            <mxPoint x="468" y="552" as="targetPoint" />
          </mxGeometry>
        </mxCell>
        <mxCell id="NdJ6AmRYJF5nQ-c4jrE2-18" value="&amp;lt;&amp;lt;include&amp;gt;&amp;gt;" style="text;html=1;align=center;verticalAlign=middle;whiteSpace=wrap;rounded=0;" parent="1" vertex="1">
          <mxGeometry x="384" y="460" width="60" height="30" as="geometry" />
        </mxCell>
        <mxCell id="NdJ6AmRYJF5nQ-c4jrE2-19" value="Sistema AcmeSF" style="text;html=1;align=center;verticalAlign=middle;whiteSpace=wrap;rounded=0;" parent="1" vertex="1">
          <mxGeometry x="280" y="150" width="210" height="30" as="geometry" />
        </mxCell>
      </root>
    </mxGraphModel>
  </diagram>
</mxfile>
